<svg xmlns="http://www.w3.org/2000/svg" width="169.9" height="35" viewBox="0 0 169.9 35"><rect class="svg__rect" x="0" y="0" width="92.98" height="35" fill="#DEFF00"/><rect class="svg__rect" x="90.98" y="0" width="78.92" height="35" fill="#422057"/><path class="svg__text" d="M13.95 18.19L13.95 18.19L13.95 17.39Q13.95 16.19 14.38 15.27Q14.80 14.35 15.60 13.85Q16.40 13.35 17.45 13.35L17.45 13.35Q18.86 13.35 19.73 14.12Q20.59 14.89 20.73 16.29L20.73 16.29L19.25 16.29Q19.14 15.37 18.71 14.96Q18.28 14.55 17.45 14.55L17.45 14.55Q16.48 14.55 15.97 15.26Q15.45 15.96 15.44 17.33L15.44 17.33L15.44 18.09Q15.44 19.47 15.93 20.20Q16.43 20.92 17.38 20.92L17.38 20.92Q18.25 20.92 18.69 20.53Q19.13 20.14 19.25 19.22L19.25 19.22L20.73 19.22Q20.60 20.59 19.72 21.35Q18.84 22.12 17.38 22.12L17.38 22.12Q16.36 22.12 15.59 21.63Q14.81 21.15 14.39 20.26Q13.97 19.37 13.95 18.19ZM26.52 22L25.04 22L25.04 13.47L28.04 13.47Q29.52 13.47 30.32 14.13Q31.12 14.79 31.12 16.05L31.12 16.05Q31.12 16.90 30.71 17.48Q30.30 18.06 29.56 18.37L29.56 18.37L31.47 21.92L31.47 22L29.89 22L28.17 18.71L26.52 18.71L26.52 22ZM26.52 14.66L26.52 17.52L28.05 17.52Q28.80 17.52 29.22 17.15Q29.64 16.77 29.64 16.11L29.64 16.11Q29.64 15.43 29.25 15.05Q28.86 14.68 28.09 14.66L28.09 14.66L26.52 14.66ZM37.56 18.86L34.69 13.47L36.34 13.47L38.30 17.51L40.26 13.47L41.90 13.47L39.04 18.86L39.04 22L37.56 22L37.56 18.86ZM47.30 22L45.82 22L45.82 13.47L49.08 13.47Q50.51 13.47 51.35 14.21Q52.19 14.96 52.19 16.18L52.19 16.18Q52.19 17.44 51.37 18.13Q50.55 18.83 49.06 18.83L49.06 18.83L47.30 18.83L47.30 22ZM47.30 14.66L47.30 17.64L49.08 17.64Q49.87 17.64 50.29 17.27Q50.70 16.90 50.70 16.19L50.70 16.19Q50.70 15.50 50.28 15.09Q49.86 14.68 49.12 14.66L49.12 14.66L47.30 14.66ZM58.16 14.66L55.52 14.66L55.52 13.47L62.29 13.47L62.29 14.66L59.63 14.66L59.63 22L58.16 22L58.16 14.66ZM67.61 22L66.13 22L66.13 13.47L67.61 13.47L67.61 22ZM72.15 18.19L72.15 18.19L72.15 17.39Q72.15 16.19 72.58 15.27Q73.00 14.35 73.80 13.85Q74.60 13.35 75.65 13.35L75.65 13.35Q77.06 13.35 77.93 14.12Q78.79 14.89 78.93 16.29L78.93 16.29L77.45 16.29Q77.35 15.37 76.92 14.96Q76.48 14.55 75.65 14.55L75.65 14.55Q74.69 14.55 74.17 15.26Q73.65 15.96 73.64 17.33L73.64 17.33L73.64 18.09Q73.64 19.47 74.13 20.20Q74.63 20.92 75.58 20.92L75.58 20.92Q76.46 20.92 76.89 20.53Q77.33 20.14 77.45 19.22L77.45 19.22L78.93 19.22Q78.80 20.59 77.92 21.35Q77.04 22.12 75.58 22.12L75.58 22.12Q74.56 22.12 73.79 21.63Q73.01 21.15 72.59 20.26Q72.17 19.37 72.15 18.19Z" fill="#422057"/><path class="svg__text" d="M107.55 22L105.17 22L105.17 13.60L111.76 13.60L111.76 15.44L107.55 15.44L107.55 17.28L111.26 17.28L111.26 19.12L107.55 19.12L107.55 22ZM117.77 22L115.35 22L119.05 13.60L121.40 13.60L125.11 22L122.65 22L121.98 20.37L118.43 20.37L117.77 22ZM120.21 15.93L119.12 18.61L121.29 18.61L120.21 15.93ZM131.06 15.48L128.48 15.48L128.48 13.60L136.00 13.60L136.00 15.48L133.43 15.48L133.43 22L131.06 22L131.06 15.48ZM147.12 22L140.37 22L140.37 13.60L146.96 13.60L146.96 15.44L142.73 15.44L142.73 16.85L146.46 16.85L146.46 18.63L142.73 18.63L142.73 20.17L147.12 20.17L147.12 22ZM151.18 21.34L151.18 21.34L152.03 19.55Q152.54 19.88 153.14 20.07Q153.75 20.25 154.36 20.25L154.36 20.25Q154.97 20.25 155.33 20.01Q155.70 19.78 155.70 19.36L155.70 19.36Q155.70 18.94 155.34 18.72Q154.98 18.51 154.07 18.51L154.07 18.51L151.79 18.51L152.21 13.60L157.56 13.60L157.56 15.44L154.18 15.44L154.07 16.66L154.63 16.66Q156.40 16.66 157.24 17.38Q158.09 18.10 158.09 19.30L158.09 19.30Q158.09 20.08 157.69 20.73Q157.29 21.39 156.46 21.78Q155.64 22.17 154.43 22.17L154.43 22.17Q153.54 22.17 152.67 21.95Q151.80 21.74 151.18 21.34Z" fill="#DEFF00" x="103.98"/></svg>